
Plot:-

The Swiss Carola Lehmann develops a crush on the Samburu warrior Lemalian Mamutelil during a ferry trip on the last day of her two week vacation in Kenya, although traveling with her boyfriend, Stefan. She strikes up a conversation with Lemalian and, the next morning, instead of returning to Biel (Switzerland), Carola decides to leave Stefan and seek out Lemalian. She travels to Nairobi by bus. From there to Maralal, where she befriends Elizabeth Muzungu, a Caucasian married to a Kikuyu. She explains some important details of the Samburu culture to Carola. Wwhen Lemalian meets with her, they walk together to his isolated tribe in Barsaloi. Carola is welcomed by his people, she sells her shop in Switzerland and marries Lemalian, having a daughter with him. She also opens up a store.There, she has to adapt to the Masai's way of life and get used to their food which includes milk mixed with blood. She also has to face her husband's attitude towards women and what he expects from a wife. However, their differences of cultures force Carola to make an ultimate decision.

General

Format : AVI
Format/Info : Audio Video Interleave
Format profile : OpenDML
File size : 1.44 GiB
Duration : 2h 5mn
Overall bit rate : 1 644 Kbps

Video
ID : 0
Format : mp43
Codec ID : mp43
Duration : 2h 5mn
Bit rate : 507 Kbps
Width : 640 pixels
Height : 272 pixels
Display aspect ratio : 2.35:1
Frame rate : 29.970 fps
Bits/(Pixel*Frame) : 0.097
Stream size : 456 MiB (31%)

Audio
ID : 1
Format : MPEG Audio
Format version : Version 1
Format profile : Layer 3
Mode : Joint stereo
Mode extension : MS Stereo
Codec ID : 55
Codec ID/Hint : MP3
Duration : 37mn 48s
Bit rate mode : Constant
Bit rate : 128 Kbps
Channel(s) : 2 channels
Sampling rate : 44.1 KHz
Compression mode : Lossy
Stream size : 34.6 MiB (2%)
Alignment : Aligned on interleaves
Interleave, duration : 29 ms (0.88 video frame)
Writing library : LAME3.98